<?xml version="1.0" encoding="utf-8"?>
<!-- Generator: Adobe Illustrator 22.1.0, SVG Export Plug-In . SVG Version: 6.00 Build 0)  -->
<svg version="1.1"
	 id="svg2" xmlns:cc="http://creativecommons.org/ns#" xmlns:dc="http://purl.org/dc/elements/1.1/" xmlns:rdf="http://www.w3.org/1999/02/22-rdf-syntax-ns#" xmlns:svg="http://www.w3.org/2000/svg"
	 xmlns="http://www.w3.org/2000/svg" xmlns:xlink="http://www.w3.org/1999/xlink" x="0px" y="0px" viewBox="0 0 400 400"
	 style="enable-background:new 0 0 400 400;" xml:space="preserve">
<style type="text/css">
	.st0{fill:none;stroke:#4DBA87;stroke-width:1.8;stroke-linecap:round;stroke-linejoin:round;}
	.st1{fill:none;stroke:#435466;stroke-width:1.5;stroke-linecap:round;stroke-linejoin:round;}
</style>
<g>
	<g>
		<g>
			<polyline class="st0" points="201.1,233.4 102.2,197.4 194.5,224 96.2,188.2 191.5,217.2 92.6,181.2 188.1,213.4 90.6,177.9 
				184.7,203.7 83.9,167 180.8,200 83,164.4 180.3,195.2 77.6,157.8 171.9,182.3 71.2,145.6 163.3,168 64.6,132.1 162.1,165.1 
				60.7,128.2 152.7,151.8 55.7,116.5 145.2,136.9 46.8,101.1 139.1,126 38.3,89.3 135.1,117.5 33.4,80.5 131.3,112.1 29,74.8 
				123.8,99.5 22.9,62.8 118.7,90.2 18.3,53.7 108.6,74.6 9.8,38.6 107.3,69.5 5.4,32.4 98.3,57.6 27.6,31.9 95.3,49.3 50,32.8 
				91.8,43.5 62.1,32.7 85.2,33.8 81.5,32.5 			"/>
			<polyline class="st0" points="199.9,366.4 197.8,365.6 204.7,363.5 194.9,359.9 207.3,359.4 189.5,353 213.2,350.4 184.4,340 
				217.6,340.4 176.4,325.4 219.6,333.6 170.8,315.8 223.7,332.2 168.8,312.2 226.3,325.7 161.3,302.1 229.5,318.1 155.2,291 
				233.9,311.7 150,281.1 239.1,303.2 143.2,268.3 243.1,292.1 133.6,252.2 247.2,289.1 130.2,246.5 253.2,280.8 121.8,233 
				253.4,276.7 119.5,228 256.4,272.8 114.7,221.3 257.8,270.6 111.9,217.5 260.3,263.1 107.4,207.5 263.2,257 100.4,197.8 
				269.5,250.7 202.1,226.2 271.8,241.6 208.1,218.4 280.1,233.8 213.4,209.5 285.2,224.5 216,199.3 287.2,221.9 218.1,196.7 
				287.3,214.5 224.6,191.7 289.1,212 224,188.3 295.7,201.8 232,178.6 299.7,195 234.9,171.4 306.4,189.3 239,164.8 308.5,180.7 
				243.7,157.1 313.3,172.5 249.1,149.1 315.1,169.5 248.6,145.3 322.2,161.1 253.9,136.2 323.7,157.1 257.1,132.8 328,147.7 
				261.2,123.4 332.9,139.6 265.9,115.2 335.3,134.9 270.7,111.4 336.9,130.7 271,106.8 339.4,127.1 272.2,102.6 345.9,118.3 
				280.6,94.6 349.9,108.7 282.4,84.2 352.6,103.4 286,79.2 359.4,95.2 291.4,70.5 362.5,85.5 295.7,61.2 366.4,84.3 299.3,59.8 
				369.4,76.9 301.8,52.3 374.1,66.5 310.2,43.3 379.5,56.5 315.6,33.3 387.3,49.2 340.4,32.1 388.4,47 347.7,32.1 390.8,37.6 
				378.6,33.2 393.8,33.9 388.7,32.1 			"/>
		</g>
	</g>
	<g>
		<g>
			<path class="st1" d="M243.2,34.3l3-1.7c0,0-12.6,17.9-12.5,18.1c0,0,31.2-18.5,31.4-18.1l-38.3,30.2c0.3,0.4,51.7-31,52.2-30.2
				c0,0-61.7,46.6-61.7,46.6C217.8,80,298,32.5,298,32.5c0.6,1-89.8,54.9-87.6,58.6c2.9,5,101.5-58.6,101.5-58.6
				c0.1,0.3-111.1,75.2-111.1,75.2c1.3,2.3,106.9-65.6,108.5-62.7"/>
			<path class="st1" d="M83.6,33.9l2.5-1.4c0,0,1.7,8.7,1.8,8.9l15.4-8.9c0,0-12.1,14.6-12,14.7c0.3,0.6,25.4-14.7,25.4-14.7
				S95,53.6,95.6,54.7c0,0,38.4-22.3,38.4-22.2c0.1,0.1-35.5,27.3-34.3,29.3c1.2,2,50.6-29.4,50.7-29.3l-46.9,35.8
				c0.6,1.1,54.9-32.4,55.2-31.9l-50.4,40.3c1.1,1.8,54.6-32.9,55.2-31.9c1.5,2.6-52,37.5-51.5,38.4c0.5,0.9,54.4-33.2,55.2-31.9
				c1.1,1.9-52.2,37.1-52.2,37.1c0.1,0.1,55.2-31.9,55.2-31.9s-52.7,36.2-51.6,38.1c0.4,0.7,55.2-31.9,55.2-31.9L123,102.3
				l55.2-31.9l-51.9,37.7c0,0,54.1-33.8,55.2-31.9c0,0-51,39.2-50.8,39.6c1.1,2,53.8-34.4,55.2-31.9c0.8,1.5-50.4,40.3-50.4,40.3
				L191,92.4C191,92.5,139,130,139,130s54.1-33.9,55.2-31.9l-51.5,38.3c0.2,0.4,55.1-32.1,55.2-31.9l-51.2,38.9
				c0,0,157.7-93.1,158.6-91.6c3.5,6-156.4,95.4-153.8,99.9c0.1,0.3,142.7-86,144.2-83.3c2.1,3.7-140.4,89.9-140.4,89.9
				c1.1,2,132.8-76.7,132.8-76.7c1.2,2.1-130,81.7-128.8,83.7c0.8,1.4,119.9-70.9,120.7-69.7l-117.5,75.1c0,0,110.8-64.8,111.2-64.2
				c1.6,2.7-108.1,69.5-108.1,69.5l101.9-58.9c1.3,2.2-99.5,63.2-98.4,65l91.4-52.7c0,0-89.2,56.5-88.2,58.2
				c1.2,2,81.9-47.3,81.9-47.3c0.1,0.1-77.8,54.5-77.8,54.5l69.4-40.1c1.6,2.8-67.8,42.9-66.4,45.3c1.2,2.1,58.9-37.4,60.4-34.9
				l-55.8,42.8c0.6,1.1,45.4-29,46.6-26.9L188,214.8c0.6,1,34.9-20.4,35-20.2c0,0-32,25.4-31.8,25.7c0.4,0.8,25-15.6,25.5-14.7
				c0.4,0.7-21.5,21.6-21.5,21.6s13.4-8.3,13.6-7.9c0,0-10.1,13.9-9.9,14.3c0,0,2.5-1.4,2.5-1.4"/>
		</g>
	</g>
</g>
</svg>
